<svg version="1.1" viewBox="0.0 0.0 320.25984251968504 147.2729658792651" fill="none" stroke="none" stroke-linecap="square" stroke-miterlimit="10" xmlns:xlink="http://www.w3.org/1999/xlink" xmlns="http://www.w3.org/2000/svg"><clipPath id="p.0"><path d="m0 0l320.25986 0l0 147.27296l-320.25986 0l0 -147.27296z" clip-rule="nonzero"/></clipPath><g clip-path="url(#p.0)"><path fill="#000000" fill-opacity="0.0" d="m0 0l320.25986 0l0 147.27296l-320.25986 0z" fill-rule="evenodd"/><path fill="#238636" d="m2.6981628 26.913853l0 0c0 -12.901398 10.458649 -23.360046 23.360048 -23.360046l268.14606 0c6.195465 0 12.137207 2.4611406 16.518036 6.8419995c4.3808594 4.3808584 6.8420105 10.322578 6.8420105 16.518047l0 93.43739c0 12.901398 -10.458649 23.360046 -23.360046 23.360046l-268.14606 0c-12.901399 0 -23.360048 -10.458649 -23.360048 -23.360046z" fill-rule="evenodd"/><path stroke="#37914a" stroke-width="3.0" stroke-linejoin="round" stroke-linecap="butt" d="m2.6981628 26.913853l0 0c0 -12.901398 10.458649 -23.360046 23.360048 -23.360046l268.14606 0c6.195465 0 12.137207 2.4611406 16.518036 6.8419995c4.3808594 4.3808584 6.8420105 10.322578 6.8420105 16.518047l0 93.43739c0 12.901398 -10.458649 23.360046 -23.360046 23.360046l-268.14606 0c-12.901399 0 -23.360048 -10.458649 -23.360048 -23.360046z" fill-rule="evenodd"/><path fill="#ffffff" d="m91.507576 48.46162c-3.5090942 0 -6.7257614 0.91859055 -9.650002 2.7557678c-2.9182205 1.8302689 -5.170189 4.5135117 -6.755913 8.049736c-1.579689 3.529316 -2.369545 7.666416 -2.369545 12.411304c0 4.3512115 0.6994095 8.422699 2.0982208 12.214462c1.4048462 3.791771 3.4488068 6.689125 6.131874 8.692062c2.6890945 1.9960251 6.177086 2.9940414 10.463966 2.9940414c4.1421814 0 7.645241 -1.2984543 10.509193 -3.8953629c2.8699799 -2.6038208 4.856659 -6.381775 5.9600296 -11.333862l-5.2636414 -1.5229263c-0.7235184 3.8332062 -2.1072617 6.7236557 -4.1512146 8.671341c-2.0439606 1.9476852 -4.5401154 2.921524 -7.4884796 2.921524c-2.4238052 0 -4.6757736 -0.71484375 -6.755905 -2.1445236c-2.0801392 -1.4296875 -3.6146088 -3.5880203 -4.603424 -6.4750137c-0.9827881 -2.893898 -1.4741821 -6.2781754 -1.4741821 -10.152824c0 -3.0044022 0.41602325 -5.9190216 1.2480774 -8.7438545c0.83205414 -2.8317375 2.2730713 -5.086769 4.323059 -6.7650948c2.056015 -1.6783218 4.612465 -2.5174866 7.6693573 -2.5174866c2.6589508 0 4.8657 0.7562828 6.620247 2.2688446c1.7545471 1.5125656 3.093071 3.9264488 4.015564 7.2416573l5.1822433 -1.3986053c-1.0671997 -4.2061653 -2.9574127 -7.469574 -5.670624 -9.790218c-2.7132187 -2.3206444 -6.059517 -3.4809685 -10.038902 -3.4809685z" fill-rule="evenodd"/><path fill="#ffffff" d="m125.44991 65.67998c2.405716 0 4.4165115 1.0532684 6.032387 3.1598053c1.6219025 2.0996323 2.432846 5.1903687 2.432846 9.272217c0 4.33049 -0.8049164 7.5524597 -2.4147644 9.665901c-1.6098328 2.113449 -3.6266632 3.170166 -6.0504684 3.170166c-2.4418945 0 -4.467766 -1.0498123 -6.077606 -3.1494446c-1.6098404 -2.1065369 -2.4147644 -5.273247 -2.4147644 -9.500137c0 -4.2268906 0.804924 -7.386696 2.4147644 -9.4794235c1.6098404 -2.09272 3.6357117 -3.1390839 6.077606 -3.1390839zm0 -4.630928c-3.5633621 0 -6.584076 1.2224808 -9.062141 3.6674423c-2.9664536 2.942253 -4.4496765 7.4695816 -4.4496765 13.581993c0 5.5736923 1.2420502 9.842018 3.7261505 12.804985c2.4901276 2.962967 5.752014 4.4444504 9.785667 4.4444504c2.514244 0 4.8325424 -0.6734009 6.954872 -2.0202026c2.1283722 -1.3468094 3.7472534 -3.2357864 4.856659 -5.666939c1.1154327 -2.438057 1.6731567 -5.7808914 1.6731567 -10.028496c0 -5.2421722 -1.2571259 -9.34819 -3.7713776 -12.318069c-2.5142517 -2.9767761 -5.752014 -4.465164 -9.71331 -4.465164z" fill-rule="evenodd"/><path fill="#ffffff" d="m155.53947 65.67998c2.2248383 0 4.0969543 1.0567245 5.6163635 3.170166c1.5193939 2.1134415 2.2790985 5.42865 2.2790985 9.945618c0 4.1025696 -0.7476349 7.155319 -2.24292 9.158264c-1.4892578 1.9960251 -3.3010864 2.9940414 -5.435486 2.9940414c-2.1163025 0 -3.95224 -1.0463562 -5.5078278 -3.1390839c-1.5555725 -2.0927277 -2.3333588 -5.252533 -2.3333588 -9.4794235c0 -4.3719254 0.726532 -7.5731735 2.1796112 -9.603737c1.4591064 -2.0305634 3.2739563 -3.045845 5.444519 -3.045845zm7.4884796 -16.441353l0 16.348114c-0.85014343 -1.3468018 -1.9535065 -2.4380608 -3.3101196 -3.2737694c-1.3566132 -0.8426132 -2.9031372 -1.2639198 -4.6396027 -1.2639198c-2.3695374 0 -4.512985 0.71483994 -6.4303284 2.1445236c-1.9173279 1.4296799 -3.3553314 3.487877 -4.3140106 6.174568c-0.95866394 2.6797943 -1.4380035 5.666939 -1.4380035 8.961418c0 3.3773727 0.52757263 6.367958 1.5827179 8.971779c1.0611572 2.5969162 2.5534363 4.620575 4.4768066 6.0709763c1.9293976 1.4504013 4.042694 2.1756058 6.3398743 2.1756058c3.5452728 0 6.2313538 -1.6368866 8.058258 -4.910652l0 4.1647263l4.531067 0l0 -45.56337z" fill-rule="evenodd"/><path fill="#ffffff" d="m187.4469 65.648895c2.4780731 0 4.4949036 1.077446 6.050476 3.2323303c1.0129395 1.3882446 1.6279297 3.470604 1.844986 6.247093l-16.08937 0c0.16279602 -2.8800888 1.0069122 -5.1800156 2.5323334 -6.8997803c1.5314636 -1.7197571 3.4186554 -2.5796432 5.6615753 -2.5796432zm-0.054260254 -4.599846c-3.9793854 0 -7.217163 1.5332832 -9.713318 4.599846c-2.4961548 3.0665665 -3.7442322 7.376335 -3.7442322 12.929306c0 5.366493 1.2330017 9.538124 3.6990204 12.514908c2.4720306 2.9698715 5.815323 4.454811 10.029846 4.454811c3.3462982 0 6.095703 -0.93240356 8.248184 -2.7972107c2.152481 -1.8647995 3.6266632 -4.4858856 4.4225464 -7.8632507l-5.046585 -0.71484375c-0.7416229 2.3620834 -1.7454987 4.081848 -3.011673 5.159294c-1.2661743 1.0774384 -2.7946167 1.6161575 -4.5853424 1.6161575c-2.405716 0 -4.413498 -0.9634781 -6.0233307 -2.890442c-1.609848 -1.9269638 -2.5052032 -4.703453 -2.686081 -8.32946l21.488663 0c0.018096924 -0.66304016 0.027130127 -1.1603241 0.027130127 -1.4918442c0 -5.4493713 -1.2209473 -9.676254 -3.6628418 -12.680664c-2.4418945 -3.004406 -5.589218 -4.506607 -9.441986 -4.506607z" fill-rule="evenodd"/><path fill="#d3e7d7" d="m218.8924 68.28084l16.687119 17.238304l16.687119 -17.238304z" fill-rule="evenodd"/></g></svg>